<?xml version="1.0" encoding="UTF-8" standalone="no"?>
<svg width="24px" height="24px" viewBox="0 0 24 24" version="1.1" xmlns="http://www.w3.org/2000/svg" xmlns:xlink="http://www.w3.org/1999/xlink">
    <defs></defs>
    <g stroke="none" stroke-width="1" fill="none" fill-rule="evenodd">
        <g fill="#000000">
            <path d="M18.4,5 L18.4,5 L5.6,5 C5.26878475,5 5,5.26878475 5,5.6 L5,18.4 C5,18.7312153 5.26878475,19 5.6,19 L18.4,19 C18.7312153,19 19,18.7312153 19,18.4 L19,5.6 C19,5.26878475 18.7312153,5 18.4,5 L18.4,5 Z M18.4,4 L18.4,4 C19.2835,4 20,4.7165 20,5.6 L20,18.4 C20,19.2835 19.2835,20 18.4,20 L5.6,20 C4.7165,20 4,19.2835 4,18.4 L4,5.6 C4,4.7165 4.7165,4 5.6,4 L18.4,4 Z"></path>
            <path d="M10.1229828,15.9528065 C10.378221,15.9527578 10.6329923,15.8548802 10.8277526,15.66012 L15.7809724,10.7069001 C16.1707532,10.3171193 16.1697605,9.68494704 15.7792362,9.29442274 C15.3859893,8.90117579 14.7563243,8.90312113 14.3667589,9.29268655 L10.122382,13.5370634 L8.70803229,12.1227137 C8.31481668,11.7294981 7.68447914,11.7323256 7.29395485,12.1228499 C6.9007079,12.5160968 6.90336961,13.1464782 7.29381873,13.5369273 L9.41541132,15.6585199 C9.61172776,15.8548363 9.86714912,15.9524353 10.1223231,15.9523553 L10.1229828,15.9528065 Z"></path>
        </g>
    </g>
</svg>