<?xml version="1.0" encoding="UTF-8" standalone="no"?>
<svg width="24px" height="24px" viewBox="0 0 24 24" version="1.1" xmlns="http://www.w3.org/2000/svg" xmlns:xlink="http://www.w3.org/1999/xlink">
    <defs></defs>
    <g stroke="none" stroke-width="1" fill="none" fill-rule="evenodd">
        <g fill="#000000">
            <path d="M5,5.99406028 L5,5.99406028 L5,18.0059397 C5,18.5539384 5.44579254,19 5.99406028,19 L18.0059397,19 C18.5539384,19 19,18.5542075 19,18.0059397 L19,5.99406028 C19,5.44606163 18.5542075,5 18.0059397,5 L5.99406028,5 C5.44606163,5 5,5.44579254 5,5.99406028 L5,5.99406028 Z M4,5.99406028 C4,4.8927712 4.89451376,4 5.99406028,4 L18.0059397,4 C19.1072288,4 20,4.89451376 20,5.99406028 L20,18.0059397 C20,19.1072288 19.1054862,20 18.0059397,20 L5.99406028,20 C4.8927712,20 4,19.1054862 4,18.0059397 L4,5.99406028 L4,5.99406028 Z"></path>
        </g>
    </g>
</svg>