<?xml version="1.0" encoding="UTF-8" standalone="no"?>
<svg width="24px" height="24px" viewBox="0 0 24 24" version="1.1" xmlns="http://www.w3.org/2000/svg" xmlns:xlink="http://www.w3.org/1999/xlink">
    <defs></defs>
    <g stroke="none" stroke-width="1" fill="none" fill-rule="evenodd">
        <g fill="#000000">
            <path d="M20,13.1255 L20,11.1345 L17.674,10.143 C17.608,9.9565 17.565,9.7755 17.479,9.5985 L18.453,7.2075 L17.052,5.8 L14.6855,6.776 C14.5045,6.688 14.3215,6.523 14.1315,6.455 L13.124,4 L11.133,4 L10.1495,6.4475 C9.9515,6.5175 9.7605,6.637 9.572,6.7265 L7.2065,5.7985 L5.799,7.2175 L6.763,9.568 C6.67,9.7605 6.5035,9.9595 6.431,10.1615 L4,11.1655 L4,13.1565 L6.433,14.1325 C6.505,14.3345 6.6285,14.531 6.7215,14.7235 L5.7975,17.0835 L7.2165,18.491 L9.5725,17.523 C9.761,17.6125 9.9565,17.63 10.1545,17.698 L11.1645,20 L13.155,20 L14.141,17.6865 C14.3295,17.6165 14.516,17.5695 14.695,17.484 L17.082,18.454 L18.4895,17.0535 L17.51,14.681 C17.5935,14.5025 17.608,14.323 17.674,14.1385 L20,13.1255 L20,13.1255 Z M11.9997218,15 C10.3435327,15 9,13.6563427 9,12 C9,10.3436573 10.3435327,9 11.9997218,9 C13.655911,9 15,10.3436573 15,12 C15,13.6563427 13.655911,15 11.9997218,15 L11.9997218,15 Z"></path>
        </g>
    </g>
</svg>