<?xml version="1.0" encoding="UTF-8" standalone="no"?>
<svg width="24px" height="24px" viewBox="0 0 24 24" version="1.1" xmlns="http://www.w3.org/2000/svg" xmlns:xlink="http://www.w3.org/1999/xlink">
    <defs></defs>
    <g stroke="none" stroke-width="1" fill="none" fill-rule="evenodd">
        <g fill="#000000">
            <path d="M17.0001924,7.93529333 L17.0001924,12.7716507 C17.0001924,13.2884575 16.5815135,13.7071364 16.0647067,13.7071364 C15.5478999,13.7071364 15.1292209,13.2884575 15.1292209,12.7716507 L15.1292209,10.1945433 L8.59505897,16.7263964 C8.41265657,16.9087988 8.17407115,17 7.93548573,17 C7.69459142,17 7.456006,16.9087988 7.2736036,16.7263964 C6.9087988,16.3615916 6.9087988,15.7699382 7.2736036,15.4051334 L13.8054567,8.87097147 L11.2283493,8.87097147 C10.7115425,8.87097147 10.2928636,8.45229254 10.2928636,7.93548573 C10.2928636,7.41867893 10.7113501,7 11.2283493,7 L16.0647067,7 C16.1278164,7 16.1909261,7.00692667 16.2542282,7.01866354 C16.2846286,7.02559021 16.315029,7.03270929 16.3431205,7.04213726 C16.3735209,7.05156524 16.4016124,7.0608008 16.4297039,7.07484655 C16.4529852,7.08427453 16.4764589,7.09351009 16.4997402,7.10755585 C16.5278318,7.1216016 16.5536144,7.13564736 16.5792046,7.15431089 C16.6049872,7.17066554 16.6305774,7.18932907 16.65636,7.21049391 C16.6796414,7.22915745 16.7031151,7.25032228 16.7265888,7.2736036 C16.8364535,7.38346834 16.913609,7.5168068 16.9580551,7.65707194 C16.9672907,7.68747234 16.9744098,7.71787274 16.9813365,7.74827314 C16.9932657,7.80907394 17.0001924,7.87218363 17.0001924,7.93529333 L17.0001924,7.93529333 Z"></path>
        </g>
    </g>
</svg>