<?xml version="1.0" encoding="UTF-8" standalone="no"?>
<svg width="24px" height="24px" viewBox="0 0 24 24" version="1.1" xmlns="http://www.w3.org/2000/svg" xmlns:xlink="http://www.w3.org/1999/xlink">
    <defs></defs>
    <g stroke="none" stroke-width="1" fill="none" fill-rule="evenodd">
        <g fill="#000000">
            <path d="M14.2876921,19.4797724 L14.2876921,14.9074648 L9.71538455,14.9074648 L9.71538455,19.4797724 L5.14307696,19.4797724 L5.14307696,12.621311 C5.00153828,12.4797726 4,11.4782343 4,11.4782341 L11.248773,5.26500013 C11.6645138,4.90865088 12.3428831,4.91235398 12.7625957,5.27210768 L15.430769,7.55911335 L15.430769,6.76601719 C15.430769,6.21198304 15.8715625,5.76284963 16.4401641,5.76284963 L16.7075277,5.76284963 C17.2650012,5.76284963 17.7169228,6.20844085 17.7169228,6.76934157 L17.7169228,9.51867375 L20.0030766,11.4782341 C20.0030766,11.4782343 19.0015383,12.4797726 18.8602002,12.621311 L18.8599997,19.4797724 L14.2876921,19.4797724 Z"></path>
        </g>
    </g>
</svg>