<?xml version="1.0" encoding="UTF-8" standalone="no"?>
<svg width="24px" height="24px" viewBox="0 0 24 24" version="1.1" xmlns="http://www.w3.org/2000/svg" xmlns:xlink="http://www.w3.org/1999/xlink">
    <defs></defs>
    <g stroke="none" stroke-width="1" fill="none" fill-rule="evenodd">
        <g fill="#000000">
            <path d="M13.0606602,13.5606602 L13.0606602,13.5606602 C14.6227573,11.998563 14.6227573,9.46590309 13.0606602,7.90380592 C11.498563,6.34170876 8.96590309,6.34170876 7.40380592,7.90380592 C5.84170876,9.46590309 5.84170876,11.998563 7.40380592,13.5606602 C8.96590309,15.1227573 11.498563,15.1227573 13.0606602,13.5606602 L13.0606602,13.5606602 L13.0606602,13.5606602 Z M13.9934294,15.4076429 C11.6372747,17.3078408 8.17830301,17.1635844 5.98959236,14.9748737 C3.64644661,12.631728 3.64644661,8.83273811 5.98959236,6.48959236 C8.33273811,4.14644661 12.131728,4.14644661 14.4748737,6.48959236 C16.4888853,8.5036039 16.7717871,11.5931891 15.3235791,13.9093655 L16.8890873,15.4748737 L17.9480829,16.5338693 C18.3395265,16.9253129 18.3429944,17.5565005 17.9497475,17.9497475 C17.5592232,18.3402718 16.9237531,18.3379666 16.5420549,17.9562684 L13.9934294,15.4076429 L13.9934294,15.4076429 Z"></path>
        </g>
    </g>
</svg>