<?xml version="1.0" encoding="UTF-8" standalone="no"?>
<svg width="58px" height="58px" viewBox="0 0 58 58" version="1.1" xmlns="http://www.w3.org/2000/svg" xmlns:xlink="http://www.w3.org/1999/xlink">
    <!-- Generator: Sketch 3.6 (26304) - http://www.bohemiancoding.com/sketch -->
    <title>no_results</title>
    <desc>Created with Sketch.</desc>
    <defs></defs>
    <g id="Mobile" stroke="none" stroke-width="1" fill="none" fill-rule="evenodd">
        <g id="no_results" stroke="#777F93" fill="#777F93">
            <g id="Group" transform="translate(1.000000, 1.000000)">
                <path d="M28,2.24 C42.20384,2.24 53.76,13.79616 53.76,28 C53.76,42.20384 42.20384,53.76 28,53.76 C13.79616,53.76 2.24,42.20384 2.24,28 C2.24,13.79616 13.79616,2.24 28,2.24 L28,2.24 L28,2.24 Z M28,0 C12.53616,0 0,12.53616 0,28 C0,43.46384 12.53616,56 28,56 C43.46384,56 56,43.46384 56,28 C56,12.53616 43.46384,0 28,0 L28,0 L28,0 Z" id="Shape" stroke-width="2"></path>
                <path d="M39.2,43.12 C38.58176,43.12 38.08,42.61824 38.08,42 C38.08,36.442 33.558,31.92 28,31.92 C22.442,31.92 17.92,36.442 17.92,42 C17.92,42.61824 17.41824,43.12 16.8,43.12 C16.18176,43.12 15.68,42.61824 15.68,42 C15.68,35.20664 21.20664,29.68 28,29.68 C34.79336,29.68 40.32,35.20664 40.32,42 C40.32,42.61824 39.81824,43.12 39.2,43.12 L39.2,43.12 Z" id="Shape" stroke-width="2"></path>
                <circle id="Oval" cx="19.6" cy="19.6" r="2.8"></circle>
                <circle id="Oval" cx="36.4" cy="19.6" r="2.8"></circle>
            </g>
        </g>
    </g>
</svg>